<?xml version="1.0"?><svg version="1.2" baseProfile="tiny-ps" viewBox="0 0 300 300" xmlns="http://www.w3.org/2000/svg" xmlns:xlink="http://www.w3.org/1999/xlink"><title>Diyanza</title><g><g fill="#fefefe" transform="matrix(.1 0 0 -.1 0 300)"><path d="M0 1500V0h3000v3000H0V1500z"/></g><g fill="#dfd7d5" transform="matrix(.1 0 0 -.1 0 300)"><path d="m1373 1820-23-9v-49l-37-19-38-18-3-24c-2-14-11-35-19-48l-15-23 5-25 4-26-13-37c-7-20-39-102-72-182l-59-145h-38l-3 128-3 128 77 147c42 81 81 153 87 160l9 12h70l-4 13-5 12h-156l-4-12-5-13h69l-67-132c-38-73-72-134-77-135l-8-3-68 135-67 135h72l-4 13-5 12H580l-2-10-3-10 38-3 37-3v-578l-35-3-35-3v-20h243l5 13 4 12h-82v580h19c25 0 27-4 106-155 37-71 72-134 76-140l9-9v-276h-72l5-12 4-13h306l5 13 4 12h-83l5 18c3 9 19 49 35 87l30 70 68 3 68 2 32-19 32-20 12-40 12-40-21-40-22-41h59c32 0 99-3 149-6l92-7v33h-70v504l9-10c7-8 88-136 281-443 25-40 50-73 55-72l10 1 3 300 2 300h30v-172l13 4 12 5 5 44 5 44 20 27 20 28 35 10 35 10h167l-35-62c-19-35-81-148-137-253-57-104-114-210-127-234l-24-44 9-9 8-8 244 2 243 3 5 13 4 12h-36c-20 0-36 1-36 3 0 1 15 43 34 92l34 90 100 3 99 3 35-93 35-93-34-3-34-3 4-12 4-12h226l4 12 4 12-32 3-32 3-99 260c-54 143-105 278-112 300-8 21-18 41-23 42l-10 4-13-33c-7-18-18-46-25-63-7-16-46-120-86-229l-74-199-3 47-3 46h-29v-87l-23-34-23-34-34-12-35-12h-83l-83-1 7 23c3 12 10 27 14 32 4 6 23 39 42 75s83 153 141 261c59 108 107 201 107 207v12h-550v-30h70v-415l-63 97c-34 53-98 154-142 223l-80 125-79-2-79-3-5-12-4-13h72l5-22c3-13 4-144 3-293l-3-270-22 68c-13 37-34 86-48 108l-26 40-122-1c-67-1-127-1-134-1l-11 1 26 66 26 66 7-21 8-20-10-33c-5-18-9-36-9-40v-8h210v8c0 5-7 23-15 40l-16 30 19 49c11 26 23 56 27 66l7 17h-16c-9 0-16 4-16 8 0 5 10 8 22 8l22-1 10 28 10 28-10 16c-6 9-26 22-45 28l-34 12-4 19c-3 21-20 44-30 43-3 0-16-4-28-9zm1281-302 36-98h-90c-50 0-90 2-90 4 0 6 81 220 88 230l6 10 7-24c4-14 23-69 43-122zM70 1805v-15h70v-580H58l4-12 5-13 109-3 109-4 70 12 70 12 46 24 46 23 30 35 31 34 21 57 21 56v145l-15 45-16 45-31 38c-41 50-93 82-166 100l-60 16H70v-15zm351-49 41-27 20-46c11-24 25-74 30-110l11-65-11-75-12-76-25-46-25-46-35-24-35-24-70-5-70-5v586l70-5 70-5 41-27z"/></g><g fill="#999594" transform="matrix(.1 0 0 -.1 0 300)"><path d="m1368 1809-18-10v-48l-32-9-32-8-7-31c-3-16-13-40-22-53l-16-23 6-28 5-28-72-181-72-180h-48v272l44 82c24 44 60 114 81 154l37 72h67l6 10 6 10h-172l6-10 6-10h59v-8c0-4-4-12-9-17-4-6-37-65-71-132l-62-123-10 6c-8 5-138 258-138 269 0 3 13 5 29 5h30l6 10 6 10H579l6-10 6-10h59v-580h-70v-20h240v20h-70v580h48l81-154 81-154v-272h-70v-20h320v20h-89l38 93 38 92h140l27-15 28-14 14-28 14-27v-67l-15-20c-8-10-15-22-15-26v-8h290v20h-80v510h8c4 0 82-118 173-262s171-264 177-266l12-4v602h35l-3-76-4-76 10-10 9-9 7 48 6 49 16 22c8 12 28 29 44 37l29 15h96c52 0 95-2 95-5s-15-34-34-68-89-163-156-287-124-228-127-232l-4-8h501v20h-30c-16 0-30 3-30 6 0 4 15 47 33 96l32 88 105-2 104-3 28-75c15-41 31-83 34-92l5-18h-60l-6-10-6-10h231v20h-57l-114 305c-62 168-116 305-119 305s-50-120-105-267l-100-268-3 45c-2 25-7 49-12 53l-8 9-7-52-7-53-33-36-33-36-112-3-111-4 17 34c9 18 46 87 82 153 35 66 79 147 97 180 17 33 53 99 79 148l48 87h-553l6-10 6-10h59v-424l-14 19c-7 11-53 83-101 160s-106 168-128 203l-40 62h-168l6-10 6-10h58l11-19 10-20v-541h-28l-7 38c-3 20-20 64-38 97l-32 60-142 3-141 3 30 74 30 75 9-6 9-5v-35c0-20-5-44-10-55l-11-19h203l-7 18c-4 9-10 29-12 43l-5 27 21 47 21 48-15 17-16 18 15 36 15 36h24l-16-18-17-19v-21c0-25 10-28 28-10l12 12v57l-35 14-34 15-12 22c-20 37-34 43-61 27zm26-154-16-25 6-37 7-38-10 15c-6 8-11 26-11 40v26l16 22c21 30 28 28 8-3zm1296-227v-8h-180v9c0 9 78 220 87 234l6 9 43-118c24-66 44-122 44-126zM75 1800l6-10h59v-580H70v-22l163 4 162 3 55 26c70 33 106 70 139 139l26 55v180l-28 58-29 57-45 35-46 35-50 15-51 15H69l6-10zm318-24c42-18 82-61 103-111l17-40 5-85 4-85-11-57-12-58-32-47-32-48-35-17-35-18H240v580h121l32-14z"/></g><g fill="#e06047" transform="matrix(.1 0 0 -.1 0 300)"><path d="m105 1802 40-7v-590l-40-7-40-6 160 2 160 3 50 18 49 18 46 47 47 46 16 49 17 49v171l-24 50-24 50-33 32c-19 18-56 42-84 55l-50 22-165 2-165 2 40-6zm319-39 40-28 25-50 26-49 3-107 4-107-16-56-17-56-31-35c-17-20-44-43-60-51l-28-15-68-2-67-2-2 285c-1 157 0 291 3 299l4 14 72-6 72-6 40-28zm191 38 40-6v-590l-40-6-40-6h250l-40 6-40 6v590l25 3 25 3 88-165 88-164-3-134-3-133-35-6-35-6h155c85 0 135 2 112 4l-44 4 7 17c3 9 20 54 38 99l32 83h126l33-14 33-14 17-23 16-23v-82l-15-20c-8-10-15-22-15-26v-8l148 1 147 2-40 6-40 6-3 263-2 262h7c5-1 84-122 177-270l168-270 9 6 9 5v599h40l1-87 1-88 8 46c10 57 25 82 64 105l31 18 103 4c56 3 102 2 102-1s-70-134-156-292c-85-158-158-294-161-301l-5-14 248 1 249 2-35 6-35 7 3 14c2 8 17 52 34 98l31 82h213l32-87c18-49 32-93 32-100v-12l-32-4c-18-2 19-4 82-4s102 2 87 4l-29 4-22 52c-13 29-65 166-117 305-51 138-96 252-99 252s-47-111-98-247c-51-137-99-261-107-278l-13-30-2 65-2 65-8-42c-5-23-16-55-25-72l-15-31-32-16-31-16-98-5-99-6v12c0 11 253 487 302 569l20 32-274-2c-150 0-258-3-240-5l32-4v-215c0-118-2-214-4-214s-67 99-143 220l-138 220-80-2-80-1 32-4 33-4 10-19 10-19-2-278-3-278-9 2c-5 1-18 28-28 60s-28 76-41 98l-23 40-141 5-141 5 27 67 26 66 10 1h10l-1-54-1-55h189l-7 18c-5 9-10 31-12 48l-5 31 22 43 21 42-17 19-17 19 16 35c9 19 22 35 27 35h11l-15-22c-9-12-16-30-16-40v-18h10c13 0 30 34 30 60v22l-40 15-40 16-6 24c-7 27-19 30-33 6l-10-18-1 13v12h-29l-3-27-3-27-24-6c-13-3-27-12-31-20s-17-35-28-59l-21-45 9-16 9-16-74-183c-40-101-78-188-83-193l-11-11-15 6-16 6v276l82 157 82 157 36 4 35 4h-160l38-4 38-4-78-149-78-149-6 7c-9 10-149 277-149 285 0 3 17 8 38 10 20 2-53 4-163 4H575l40-6zm778-149-16-28 21-79c12-43 20-80 18-82-6-6-46 132-46 158v22l17 19c23 25 25 23 6-10zm1259-107c24-69 42-127 40-130-8-8-166-6-178 3l-12 7 46 123c26 67 50 122 53 122s26-56 51-125z"/></g><g fill="#484848" transform="matrix(.1 0 0 -.1 0 300)"><path d="m105 1802 40-7v-590l-40-7-40-6 160 2 160 3 50 18 49 18 46 47 47 46 16 49 17 49v171l-24 50-24 50-33 32c-19 18-56 42-84 55l-50 22-165 2-165 2 40-6zm319-39 40-28 25-50 26-49 3-107 4-107-16-56-17-56-31-35c-17-20-44-43-60-51l-28-15-68-2-67-2-2 285c-1 157 0 291 3 299l4 14 72-6 72-6 40-28zm191 38 40-6v-590l-40-6-40-6h250l-40 6-40 6v590l25 3 25 3 88-165 88-164-3-134-3-133-35-6-35-6 154-2c153-1 204 6 80 11l-64 3-3 140-2 140 82 157 82 157 36 4 35 4h-160l38-4 38-4-78-149-78-149-6 7c-9 10-149 277-149 285 0 3 17 8 38 10 20 2-53 4-163 4H575l40-6zm920 2 30-4 13-17 12-16v-552l-12-12-12-12 59 1 60 2-40 6-40 6-3 263-2 262h7c5-1 84-122 177-270l168-270 9 6 9 5v599h40l1-87 1-88 8 46c10 57 25 82 64 105l31 18 103 4c56 3 102 2 102-1s-70-134-156-292c-85-158-158-294-161-301l-5-14 248 1 249 2-35 6-35 7 3 14c2 8 17 52 34 98l31 82h213l32-87c18-49 32-93 32-100v-12l-32-4c-18-2 19-4 82-4s102 2 87 4l-29 4-22 52c-13 29-65 166-117 305-51 138-96 252-99 252s-47-111-98-247c-51-137-99-261-107-278l-13-30-2 65-2 65-8-42c-5-23-16-55-25-72l-15-31-32-16-31-16-98-5-99-6v12c0 11 253 487 302 569l20 32-274-2c-150 0-258-3-240-5l32-4v-215c0-118-2-214-4-214s-67 99-143 220l-138 220-80-2-80-1 30-4zm1117-258c24-69 42-127 40-130-8-8-166-6-178 3l-12 7 46 123c26 67 50 122 53 122s26-56 51-125z"/></g><g fill="#050505" transform="matrix(.1 0 0 -.1 0 300)"><path d="M150 1500v-300h80v600h-80v-300zm228 292c12-4 38-20 57-35l35-28 19-37c10-20 24-64 31-97l12-60-5-70c-8-84-28-146-64-193l-26-34-41-20-41-19 30 6c17 3 49 15 72 26l41 20 41 44 40 43 15 53 16 53v60c0 79-13 123-53 183l-32 48-65 32c-36 18-74 32-85 32l-20-1 23-6zm282-292v-300h80v600h-80v-300zm149 283c5-10 43-82 85-161l76-142v-280h79l3 150c2 83 1 150-2 150s-39 67-80 149l-75 150h-48l-48 1 10-17zm769 5 12-12 2-290 3-291 5 275 5 275 96-150c53-82 132-206 175-275l79-125 3 78 3 78-15 14c-8 8-49 70-92 137-42 68-102 162-132 211l-56 87h-100l12-12zm433-70 2-83 6 41c4 23 15 54 25 69l18 27 31 13 32 14-57 1h-58l1-82zm282 20c-18-35-52-100-77-146-24-45-81-149-125-231-45-82-81-152-81-155s19-6 43-6h42l123 228c67 125 140 260 162 300l41 72h-97l-31-62zm319 2-21-60h8c4 0 29-60 55-132 27-73 63-171 81-218s36-95 39-107l7-23h91l-4 8c-1 5-52 140-113 300-60 161-112 292-115 292s-16-27-28-60zm-205-416-7-41-22-28c-12-15-35-33-52-41l-31-13 61-1h62l4 18c2 9 2 46-2 82l-5 65-8-41z"/></g></g></svg>