<?xml version="1.0"?><svg version="1.2" baseProfile="tiny-ps" viewBox="0 0 258 258" xmlns="http://www.w3.org/2000/svg" xmlns:xlink="http://www.w3.org/1999/xlink"><title>Mumbo</title><g><g fill="#ffcf06" transform="matrix(.1 0 0 -.1 0 258)"><path d="M0 1290V0h2580v2580H0V1290z"/></g><g fill="#fec102" transform="matrix(.1 0 0 -.1 0 258)"><path d="M0 1290V0h2580v2580H0V1290zm1748 683c-75-2-201-2-280 0-79 1-17 3 137 3s218-2 143-3zm-445-34-6-21 29-25 29-25-32 22-33 21v18c0 15 8 31 16 31 1 0 0-9-3-21zm647-11v-10l-15 12c-8 7-15 14-15 16s7 1 15-2c8-4 15-11 15-16zm45-681 1-632-6 631-5 631-14 19-15 19 20-18 19-18v-632zm-582 596 17-5v-258h-15l3 123 3 123-33 17c-18 10-24 15-13 11 11-3 28-9 38-11zm235-53-3-33-12-5-13-4v23l10-6 10-6v61h-21l7 11 6 11 10-10 9-9-3-33zm-118 0v-40h-20v80h20v-40zm97-2-5-13-1 19c-1 11 2 17 5 13 3-3 4-12 1-19zm-767-228 15-10h-10c-5 0-17 5-25 10l-15 10h10c6 0 17-5 25-10zm-79-36c-29-13-56-24-60-23-9 1 93 49 104 48 6 0-14-11-44-25zm-107-68c-21-19-41-32-43-30s-2 5 0 7 19 15 37 30c48 39 53 33 6-7zm-66-63c-9-10-25-36-36-58-12-22-21-36-22-32 0 12 30 69 47 89l15 17-7 13-8 13 13-12 14-13-16-17zm852-185c-6-138-11-162-36-172l-15-6 20 26 21 27v257h15l-5-132zm50 96c12-19 21-37 18-39-2-2-14 14-26 36-28 49-22 52 8 3zm238 4c-16-18-35-46-40-61-6-15-12-26-15-23-7 6 28 76 37 76 5 0 12 9 15 20l6 20h28l-31-32zm-204-74 6-15-10 6c-6 3-10 10-10 16 0 14 7 11 14-7zm-1027-16-5-13-1 19c-1 11 2 17 5 13 3-3 4-12 1-19zm1136-15c-18-2-48-2-65 0l-33 4h130l-32-4zm-1146-50-5-18v70l5-17c2-10 2-26 0-35zm1228-3 6-10h-46l15 10c19 12 18 12 25 0zm-98-20 5-15-10 13-9 14-19-4-19-3v-103l-7 5c-5 2-8 23-8 47v42l12 12 13 13 19-3 19-3 4-15zM497 873l-3-88v350l3-87c2-49 2-127 0-175zm1214 162c11-4 18-9 16-12-3-2-15 0-26 7l-21 11 2 47 2 47 3-47 4-47 20-6zm42 4-8-8 5 52 5 52 3-44 3-44-8-8zm-366-35c-3-3-12-4-19-1l-13 5 19 1c11 1 17-2 13-5zm-527-19c0-3-12-10-27-16l-27-10 14-10 15-9-25 2-24 3-33-55c-37-60-44-60-13 1l21 39 41 30c39 28 58 37 58 25zm310-168c52-2-32-4-188-5l-283-2 4 8 5 7 184-3c100-1 226-3 278-5zm160-71c0-6-7-1-15 10-8 10-15 23-15 28 0 6 7 1 15-10 8-10 15-23 15-28zm-811-16 12-35-10 10c-5 6-13 24-17 40-9 39 0 30 15-15zm828-77-4-28v110l4-27c2-16 2-40 0-55zm-760-3c14-11 22-20 17-20-12 1-61 39-51 40 5 0 20-9 34-20zm581-47c-93-2-243-2-335 0-93 1-17 3 167 3s260-2 168-3zm770 0c-27-2-69-2-95 0l-48 3h190l-47-3z"/></g><g fill="#d4a716" transform="matrix(.1 0 0 -.1 0 258)"><path d="m1316 1957-18-14 6-20 6-20 65-38 65-38v-227l-20-20-20-20H892l-65-20-65-20-59-44c-70-51-109-99-152-184l-32-63-10-87-11-86 4-151 4-150 16-30c20-37 53-67 95-89l32-16h681v122l-34 34-34 34H702l16 43 17 42 45 46 46 46 49 16 49 17h447l30 15 30 16 9 25 10 25v240l22-3 21-3 35-62 34-63h119l15 36c9 20 25 50 37 65l21 29h36V620h190v1258l-27 33-27 32-33 13-32 14h-527l-18-13zm216-158 4-40-8-5c-4-3-12-2-18 1l-10 6v33c0 60 26 64 32 5zm113-5v-39h-30l-3 28c-2 16-1 35 2 44l6 15 13-5 12-4v-39zm-58-661c-4-3-7-26-7-50v-44l15-5 15-6 15 12 15 12v28c0 16-3 35-6 44l-6 16h-17c-10 0-21-3-24-7zm110 1c-4-4-7-26-7-50v-42l15-6c8-3 22-3 30 1l16 6-3 46-3 46-20 3c-12 2-24 0-28-4z"/></g><g fill="#84681b" transform="matrix(.1 0 0 -.1 0 258)"><path d="m1313 1944-6-17 10-16c5-8 35-29 66-46l57-30v-242l-18-16-19-17H914l-59-15c-32-9-82-29-110-45l-51-29-55-58-55-58-27-56c-14-31-31-76-36-100l-11-44V757l25-43 25-42 37-24 38-23 348-3 347-3v106l-20 32-19 32-38 11-38 11-258-3-258-3 6 25c4 14 20 46 36 72l30 47 52 33 51 33 257 5 257 5 26 24 26 24v255l15 12 16 13 23-22c12-12 33-44 46-72l24-50 55 3 56 3 26 48c14 27 35 58 47 69l21 21 15-13 16-12V620h180v1245l-20 32-19 32-30 16-30 15h-562l-6-16zm225-152 3-42h-41v38c0 41 7 55 24 49l11-4 3-41zm112 2v-45l-17 3-18 3-3 28c-4 37 4 57 23 57h15v-46zm-64-669c-3-9-6-29-6-45v-28l13-10 13-11 12 8 13 8-3 44-3 44-16 3-16 3-7-16zm116 3-12-12v-55l16-16 16-16 14 12 14 11v64l-12 12c-7 7-15 12-18 12s-11-5-18-12z"/></g><g fill="#4c3d19" transform="matrix(.1 0 0 -.1 0 258)"><path d="M1323 1949c-7-7-13-16-13-21 0-13 43-48 87-69l43-21v-254l-12-12-12-12H943l-54-10c-30-6-82-24-117-40l-63-29-58-59-59-58-22-43c-12-24-28-64-37-90l-14-46-6-166-6-166 7-56 7-56 22-33c13-18 38-43 56-55l34-23h697v82l-15 33-16 32-25 12-25 11H700v17c0 9 9 36 21 59l20 43 35 30c19 17 54 41 77 53l42 23 252 5 252 5 18 18 18 18 5 137 5 137 21 3 21 3 26-38c14-21 31-50 38-65l12-28h112l30 57c17 31 38 61 46 66l16 10 17-6 16-6V620h170l2 610 3 610-7 28-7 28-31 29-31 30-282 3-282 3-12-12zm337-154v-33l-15-12-14-12-11 7-10 6v87l13 5c6 2 18 0 25-6l12-9v-33zm-120 1v-45l-10-6-11-7-14 12-15 12v23c0 13 3 30 6 39l6 16h38v-44zm56-665c-8-13-11-80-3-87 3-4 13-4 22-1l15 6v79l-15 5-14 6-5-8zm104-46v-45h40v90h-40v-45z"/></g><g fill="#081019" transform="matrix(.1 0 0 -.1 0 258)"><path d="m1325 1946-20-14 19-21c11-12 43-33 73-47l53-26v-245l-18-16-19-17H955l-67-14-66-15-58-28-58-28-51-50-51-50-28-50c-15-27-34-75-42-105l-14-54V759l14-33 14-33 38-29 37-29 349-3 348-3v110l-24 28-24 28-292 3-291 3 7 22c15 50 45 95 87 134l45 42 53 15 53 16h437l22 11c12 7 25 17 29 23l8 11v243l20 23 20 24 35-39c19-21 39-54 45-72l12-34h114l12 33c7 19 27 51 46 73l33 39 17-14 16-13V630h170v1248l-26 31-25 30-37 11-37 10h-501l-19-14zm213-108 12-12v-30c0-17-4-37-9-44l-8-14-19 4-19 3-3 38-3 38 12 15c14 17 21 18 37 2zm110 0 12-12v-77l-15-5-15-6-15 12-15 12v64l12 12c7 7 15 12 18 12s11-5 18-12zm-56-750 3-43h30v80l-18 3-18 4 3-44zm112 28c-3-8-4-27-2-43l3-28h30l3 43 3 42h-32l-5-14z"/></g></g></svg>