<?xml version="1.0" encoding="utf-8"?>
<!DOCTYPE svg PUBLIC "-//W3C//DTD SVG 1.0//EN" "http://www.w3.org/TR/2001/REC-SVG-20010904/DTD/svg10.dtd">
<svg version="1.0" xmlns="http://www.w3.org/2000/svg" width="500px" height="500px" viewBox="0 0 500 500" preserveAspectRatio="xMidYMid meet">
 <g fill="#000000">
  <path d="M10 300.25 l0 -2.75 6.50 0 6.50 0 -0.10 -47.60 -0.15 -47.65 -6.10 -0.15 -6.15 -0.15 0 -2.45 0 -2.50 23.95 0 c25.90 0 28.35 0.20 36.65 2.80 16.55 5.25 26.80 16 31.50 33.20 1.05 3.90 1.15 5.25 1.15 16.25 0 13.10 -0.25 14.70 -3.35 23.50 -2.85 7.95 -9.45 16.55 -16.05 20.90 -3.95 2.65 -10.35 5.55 -14.85 6.85 -8 2.20 -11.90 2.50 -36.35 2.50 l-23.15 0 0 -2.75z m48.40 -3.55 c4.40 -0.90 7.70 -2.40 11.50 -5.25 12.60 -9.50 18.80 -34.45 14.35 -57.70 -3.10 -16.15 -11.70 -27 -24 -30.30 -2.85 -0.75 -6.15 -1.10 -11.55 -1.30 l-7.55 -0.30 -0.30 2.20 c-0.20 1.80 -0.15 92.90 0.10 93.35 0.25 0.50 14.25 -0.05 17.45 -0.70z"/>
  <path d="M95.20 302.30 c-0.15 -0.40 -0.20 -1.55 -0.10 -2.60 l0.15 -1.95 6.15 -0.15 6.10 -0.15 0 -47.70 0 -47.75 -6 0 c-5.90 0 -6 0 -6.30 -1.20 -0.15 -0.65 -0.20 -1.75 -0.10 -2.35 l0.15 -1.20 34.40 -0.15 34.35 -0.10 0 2.50 0 2.50 -5.80 0 -5.80 0 1 1.65 c0.55 0.85 4.70 8.90 9.25 17.85 4.55 8.95 9.25 18.10 10.50 20.40 l2.20 4.15 1.35 -2.25 c0.70 -1.20 1.30 -2.35 1.30 -2.55 0 -0.15 2.30 -4.60 5.05 -9.90 2.80 -5.30 7.10 -13.55 9.60 -18.35 2.45 -4.80 4.80 -9.25 5.15 -9.90 l0.70 -1.10 -5.25 0 -5.25 0 0 -2.50 0 -2.50 14.65 0.10 14.60 0.15 0.15 2.35 0.15 2.35 -6.05 0.15 -6.10 0.15 -1.85 3.50 c-3 5.70 -18.60 35.40 -22.50 42.85 l-3.55 6.90 0.10 20.85 0.15 20.90 3.10 0.15 c3.05 0.15 3.15 0.10 3.45 -1.25 0.60 -2.75 1.35 -4.95 2.95 -8.40 0.90 -1.90 1.80 -4.15 1.95 -5 0.20 -0.80 1.10 -3.20 2.05 -5.25 0.90 -2.05 2.25 -5.50 3 -7.65 0.75 -2.15 1.70 -4.05 2.05 -4.20 0.40 -0.15 0.70 -0.75 0.70 -1.35 0 -1.35 2.05 -6.70 3.65 -9.50 0.65 -1.10 1.35 -2.85 1.50 -3.85 0.40 -2.60 2.35 -6.95 3.10 -6.95 0.40 0 0.80 -1 1 -2.60 0.20 -1.45 0.55 -3.15 0.80 -3.75 0.25 -0.70 0.15 -1.60 -0.40 -2.65 -1.15 -2.35 -0.70 -8.60 0.75 -10.40 2.60 -3.25 3.75 -5.75 4.05 -8.75 0.40 -3.65 1.15 -5.15 2.65 -5.60 0.65 -0.15 1.60 -0.50 2.15 -0.75 0.55 -0.25 1.95 -0.70 3.05 -1 2.35 -0.60 4.65 -2.65 4.75 -4.20 0.05 -0.55 0 -2.40 -0.05 -4 l-0.10 -2.95 3.05 0.35 c3.05 0.35 3.05 0.35 3.05 -0.95 0 -1.15 0.15 -1.25 2.50 -1.25 1.90 0 2.50 0.20 2.50 0.75 0 0.40 0.35 0.75 0.80 0.75 1.10 0 2.15 1.45 2.20 2.90 0 0.60 0.55 2 1.25 3.10 0.70 1.10 1.25 2.15 1.25 2.40 0 0.20 1.40 0.70 3.15 1.05 4.15 0.90 7.35 2.30 7.35 3.25 0 0.45 0.35 0.80 0.75 0.80 1.20 0 1.75 1.75 1.75 5.45 0 4.15 -0.40 5.45 -2.45 7.50 -1.20 1.25 -1.55 2.05 -1.55 3.60 0 1.95 -1.10 4.30 -2.35 5.10 -0.35 0.20 -0.65 0.80 -0.65 1.30 0 0.45 -1 2.90 -2.20 5.35 -3.85 8 -3.95 11.10 -0.50 16.45 1.20 1.95 1.70 3.25 1.70 4.75 l0 2 -18.10 -0.10 -18.15 -0.15 -0.15 -1.65 c-0.10 -0.90 0.05 -1.95 0.30 -2.25 0.25 -0.35 1 -2.15 1.60 -4.05 0.90 -2.75 1.05 -4.10 0.85 -6.65 -0.20 -1.75 -0.45 -3.45 -0.65 -3.75 -0.20 -0.25 -0.80 0.60 -1.35 1.90 -0.60 1.35 -1.35 2.70 -1.75 2.95 -0.35 0.30 -0.80 1.55 -0.95 2.75 -0.15 1.25 -1.25 4.30 -2.45 6.85 -1.20 2.55 -2.20 4.85 -2.20 5.15 0 0.35 7.40 0.50 22.70 0.50 l22.70 0 1.55 2.40 c0.85 1.35 1.55 2.60 1.55 2.80 0 0.20 0.55 1.10 1.25 1.95 2.80 3.70 7.70 16.70 9.50 25.25 0.20 0.85 0.50 1.60 0.75 1.60 0.20 0 0.50 -20.10 0.60 -44.60 l0.25 -44.65 -1.50 -2.75 c-0.80 -1.50 -1.75 -2.90 -2.05 -3.10 -0.30 -0.20 -2.75 -0.40 -5.40 -0.40 l-4.90 0 0 -2.50 0 -2.50 14.75 0 14.75 0 1.85 2.85 c1 1.60 2.55 4.05 3.45 5.40 0.85 1.40 3.05 4.75 4.85 7.55 1.80 2.80 5.10 8.05 7.35 11.65 2.20 3.65 4.80 7.80 5.70 9.20 0.95 1.45 6 9.45 11.30 17.85 5.30 8.40 9.85 15.45 10.05 15.70 0.25 0.30 0.45 -13.90 0.45 -32.35 l0 -32.85 -5.75 0 -5.75 0 0 -2.50 0 -2.50 46.75 0 46.75 0 0 1.90 c0 1.20 -0.70 3.10 -1.90 5.35 -1.05 1.95 -4 7.35 -6.60 12 -5.60 10.20 -12.35 22.70 -15.90 29.35 -1.45 2.70 -3.15 5.85 -3.80 7 -1.90 3.50 -11.30 20.80 -13.60 25.15 -1.15 2.20 -4 7.50 -6.30 11.75 l-4.20 7.75 12 0.15 c16.30 0.20 19.75 -0.50 25.65 -5 5.05 -3.85 8.05 -10.90 8.55 -19.80 l0.25 -5.15 2.55 0.15 2.55 0.15 0.25 6.75 0.25 6.75 1.70 -4.50 c2.40 -6.25 5.70 -15 8.05 -21.25 2.50 -6.60 7.60 -20.05 9.50 -25.10 0.85 -2.10 1.50 -4 1.50 -4.15 0 -0.15 1.15 -3.25 2.50 -6.90 3.90 -10.25 5.80 -15.25 7.50 -19.75 l1.60 -4.15 2 0.15 1.95 0.15 2.05 5.25 c1.10 2.90 2.50 6.70 3.15 8.50 2.10 5.85 14.10 37.80 24.50 65.25 2.95 7.70 5.75 15.15 6.25 16.50 0.50 1.40 1.25 3.35 1.70 4.35 l0.80 1.85 4.60 0.15 4.65 0.15 0 2.50 0 2.50 -20.15 0.15 -20.15 0.10 0.15 -2.60 0.15 -2.65 5.15 -0.15 c2.80 -0.05 5.10 -0.20 5.10 -0.30 0 -0.15 -6.85 -18.70 -9.15 -24.80 l-1.65 -4.25 -11.45 -0.25 c-6.35 -0.15 -13.60 -0.20 -16.10 -0.05 -4.20 0.15 -4.65 0.30 -4.95 1.25 -0.15 0.60 -1.15 3.30 -2.20 6.05 -1.05 2.75 -3.35 8.90 -5.15 13.65 l-3.25 8.60 5.45 0 5.45 0 0 2.75 0 2.75 -43 0 -43 0 0 -1.75 c0 -1.25 0.95 -3.50 3.05 -7.40 1.70 -3.10 6.20 -11.35 9.95 -18.35 3.80 -7 8.90 -16.45 11.35 -21 2.45 -4.55 5.55 -10.25 6.85 -12.75 1.35 -2.45 2.80 -5.15 3.30 -6 0.50 -0.80 3.15 -5.65 5.90 -10.75 2.70 -5.10 6.55 -12.20 8.55 -15.85 1.95 -3.60 3.55 -6.75 3.55 -6.90 0 -0.20 -6 -0.25 -13.35 -0.15 -14.50 0.25 -16.80 0.65 -21.80 3.55 -5.75 3.40 -9.85 10.70 -9.85 17.65 0 1.40 -0.15 3.60 -0.30 4.90 l-0.35 2.35 -2.30 -0.15 -2.30 -0.15 -0.15 -14.10 -0.10 -14.15 -1.75 0 -1.75 0 -0.05 31.65 c0 17.35 -0.05 40.05 -0.10 50.35 l-0.10 18.75 -2.75 0.15 c-2.65 0.15 -2.80 0.10 -3.70 -1.50 -0.55 -0.90 -3.85 -6.20 -7.40 -11.75 -3.50 -5.60 -9.35 -14.80 -12.95 -20.50 -3.60 -5.75 -7.30 -11.50 -8.20 -12.90 -0.90 -1.35 -3 -4.65 -4.60 -7.25 -5.55 -8.80 -17.75 -28.25 -19.25 -30.65 -0.80 -1.30 -1.60 -2.35 -1.70 -2.35 -0.10 0 -0.20 18.35 -0.20 40.75 l0 40.75 6.50 0 6.50 0 0 2.85 0 2.80 -16.60 -0.30 c-9.10 -0.20 -20.80 -0.35 -26 -0.35 l-9.40 0 0 -1.55 c0 -1 0.55 -2.20 1.65 -3.50 3 -3.50 4.60 -7.30 4.60 -11 0 -2.75 -0.30 -3.80 -1.75 -6.70 -2.45 -4.85 -4.55 -6.85 -9.75 -9.35 l-4.50 -2.15 -9.70 0 -9.70 0 -1.90 5.25 c-1.05 2.90 -2.45 6.50 -3.10 8 -1.60 3.60 -4.25 10.10 -5.35 13.25 l-0.95 2.50 6.75 0.15 6.70 0.15 0 2.70 0 2.75 -27.60 -0.10 -27.65 -0.15 0 -2.50 0 -2.50 6.05 -0.15 6.05 -0.15 0.30 -3.25 c0.20 -1.75 0.20 -11.25 0 -21.10 l-0.30 -17.85 -1.40 -2.85 c-2.75 -5.45 -26.05 -49.15 -26.55 -49.75 -0.30 -0.40 -1.65 -0.65 -3.20 -0.65 l-2.70 0 0 47.75 0 47.70 6.40 0.15 6.35 0.15 0 2.50 0 2.50 -21.40 0.15 c-18 0.10 -21.40 0 -21.65 -0.60z m351.65 -40.65 c-0.15 -0.50 -1.55 -4.25 -3.10 -8.40 -1.55 -4.10 -4.25 -11.55 -6.05 -16.50 -3.60 -10 -4.15 -11.45 -4.40 -11.20 -0.30 0.30 -13.80 36.35 -13.80 36.80 0 0.10 6.20 0.15 13.80 0.15 12.95 0 13.80 -0.05 13.55 -0.85z"/>
 </g>
 <g fill="#ffffff">
  <path d="M0 250 l0 -250 250 0 250 0 0 250 0 250 -250 0 -250 0 0 -250z m59.50 50.75 c9 -1.35 16.80 -4.25 23.35 -8.60 6.60 -4.35 13.20 -12.95 16.05 -20.90 3 -8.55 3.30 -10.55 3.35 -22 0 -9.45 -0.10 -10.95 -1.15 -14.75 -4.70 -17.15 -14.95 -27.95 -31.50 -33.20 -8.25 -2.60 -10.90 -2.80 -35.15 -2.80 -22 0 -22.45 0 -22.45 1 0 0.90 0.40 1 6.15 1.10 l6.10 0.15 0.15 49.15 0.10 49.10 -6.50 0 -6.50 0 0 1.25 0 1.25 21.65 0 c16.40 0 22.75 -0.20 26.35 -0.75z m77.25 -0.50 c0 -0.95 -0.40 -1 -6.35 -1.15 l-6.40 -0.15 0 -49.20 0 -49.25 4.20 0 c2.75 0 4.35 0.20 4.70 0.65 0.50 0.60 23.75 44.15 26.55 49.75 l1.40 2.85 0.35 18.65 c0.20 10.25 0.20 20.40 0 22.60 l-0.35 3.95 -6.05 0.15 c-5.65 0.15 -6.05 0.20 -6.05 1.15 0 1 0.40 1 26.15 1.15 l26.10 0.10 0 -1.25 0 -1.25 -7.25 0 c-4 0 -7.25 -0.05 -7.25 -0.10 0.15 -1 5.05 -13.65 7.35 -18.90 0.65 -1.50 2.05 -5.10 3.10 -8 l1.90 -5.25 11.20 0 11.20 0 4.50 2.15 c5.20 2.50 7.30 4.50 9.75 9.35 1.65 3.20 1.75 3.75 1.75 8.20 0 4.30 -0.15 5.10 -1.45 7.70 -0.80 1.60 -2.25 3.75 -3.20 4.85 -0.90 1.10 -1.45 2 -1.20 2 0.30 0 0.65 -0.30 0.80 -0.60 0.25 -0.50 0.35 -0.50 0.60 0 0.20 0.45 3.45 0.60 13.70 0.60 13.05 0 13.45 -0.05 13.75 -1 0.95 -3.05 -5.85 -23 -9.50 -27.85 -0.70 -0.85 -1.25 -1.75 -1.25 -1.95 0 -0.20 -0.70 -1.45 -1.55 -2.80 l-1.55 -2.45 -23.20 0.15 c-12.75 0.10 -23.20 0.05 -23.20 -0.10 0.05 -1 1.80 -5.70 3.40 -9.10 1.10 -2.30 2.10 -5.05 2.25 -6.15 0.15 -1.10 0.45 -2.55 0.60 -3.25 0.15 -0.70 -0.30 -0.10 -1 1.25 -0.65 1.40 -1.35 3.30 -1.50 4.25 -0.15 0.95 -0.95 3 -1.75 4.50 -1.85 3.55 -3.50 7.95 -3.50 9.30 0 0.60 -0.30 1.20 -0.70 1.35 -0.35 0.15 -1.30 2.05 -2.05 4.20 -0.75 2.15 -2.10 5.60 -3.05 7.65 -0.90 2.05 -1.85 4.55 -2 5.50 -0.20 0.95 -0.50 2 -0.70 2.25 -1 1.30 -3.65 8.15 -3.60 9.25 0.05 2.60 -0.85 3.05 -5.70 2.90 l-4.45 -0.15 -0.15 -22.40 -0.10 -22.35 3.55 -6.90 c3.90 -7.45 19.50 -37.15 22.50 -42.85 l1.85 -3.50 6.10 -0.15 c5.40 -0.10 6.05 -0.20 5.90 -1 -0.15 -0.75 -1.35 -0.85 -13.30 -1 -12.85 -0.10 -13.10 -0.10 -13.10 0.90 0 0.95 0.30 1 5.75 1 3.80 0 5.75 0.20 5.75 0.55 0 0.30 -0.75 1.90 -1.70 3.60 -0.95 1.70 -3.60 6.80 -5.95 11.35 -2.30 4.55 -6.25 12.10 -8.70 16.75 -2.45 4.70 -5.45 10.45 -6.70 12.90 -1.20 2.40 -2.35 4.35 -2.55 4.35 -0.35 0 -4.50 -7.90 -14.40 -27.25 -3.65 -7.15 -7.60 -14.85 -8.80 -17.10 -1.20 -2.20 -2.20 -4.30 -2.20 -4.60 0 -0.35 2.05 -0.55 6.25 -0.55 5.90 0 6.25 -0.05 6.25 -1 0 -1 -0.35 -1 -32.65 -1 -18 0 -32.80 0.15 -33 0.30 -0.15 0.15 -0.15 0.60 0 1 0.20 0.55 1.55 0.70 6.20 0.70 l5.95 0 0 49.25 0 49.25 -5.95 0 c-6 0 -6.95 0.25 -6.35 1.80 0.25 0.60 3.10 0.70 20.15 0.60 19.50 -0.15 19.90 -0.15 19.90 -1.15z m143.25 0 l0 -1.25 -6.50 0 -6.50 0 0 -44.25 c0 -24.35 0.15 -44.25 0.40 -44.25 0.40 0 3.25 4.35 13.50 20.75 10.60 16.85 13.05 20.70 14.85 23.50 0.90 1.40 4.60 7.15 8.20 12.90 3.60 5.70 9.45 14.90 12.95 20.50 3.55 5.55 6.85 10.85 7.40 11.75 0.75 1.25 1.25 1.60 2.20 1.50 l1.25 -0.15 0.10 -33.75 c0.05 -18.55 0.10 -41.25 0.10 -50.35 l0.05 -16.65 3.25 0 3.25 0 0 14 c0 12.20 0.10 14.05 0.75 14.35 0.45 0.15 0.90 0.15 1.05 0.05 0.15 -0.15 0.35 -2.25 0.50 -4.70 0.50 -8.15 1.95 -12.35 5.85 -16.55 2.45 -2.65 5.30 -4.40 9.50 -5.80 2.80 -0.90 4.70 -1.05 18.75 -1.25 8.55 -0.10 15.60 0 15.60 0.20 0 0.25 -1.75 3.70 -3.90 7.70 -8.50 15.75 -14.75 27.30 -15.60 28.75 -0.50 0.85 -1.95 3.55 -3.30 6 -1.30 2.50 -4.40 8.20 -6.85 12.75 -2.45 4.55 -7.55 14 -11.35 21 -3.75 7 -8.25 15.25 -9.95 18.35 -1.65 3.10 -3.05 5.75 -3.05 5.90 0 0.15 18.70 0.25 41.50 0.25 l41.50 0 0 -1.25 0 -1.25 -6.05 0 c-5.55 0 -6.05 -0.05 -5.70 -0.85 0.20 -0.50 1.90 -5.05 3.85 -10.15 1.90 -5.10 4.35 -11.50 5.40 -14.25 1.05 -2.75 2.05 -5.45 2.20 -6.05 0.30 -0.95 0.80 -1.05 5.70 -1.30 2.95 -0.15 10.85 -0.15 17.60 0.05 l12.20 0.30 1.65 4.25 c3.40 9.10 9.80 26.30 10 27.10 0.25 0.80 -0.35 0.90 -5.40 1 -5.50 0.15 -5.70 0.20 -5.85 1.30 l-0.15 1.10 18.65 -0.10 c18.25 -0.15 18.65 -0.15 18.65 -1.15 0 -0.90 -0.40 -1 -4.65 -1.15 l-4.60 -0.15 -0.80 -1.85 c-0.45 -1 -1.20 -2.95 -1.70 -4.35 -0.50 -1.35 -3.30 -8.80 -6.25 -16.50 -10.40 -27.45 -22.40 -59.40 -24.50 -65.25 -2.85 -8 -5.20 -13.75 -5.65 -13.90 -0.30 -0.10 -1.20 1.70 -2.10 4 -2.25 6.05 -4.70 12.50 -6.80 17.90 -1 2.60 -2.45 6.55 -3.20 8.75 -1.35 3.75 -2.40 6.55 -7.50 20 -1.15 3.05 -2.95 7.85 -4.05 10.75 -1.10 2.90 -2.75 7.30 -3.70 9.75 -5.65 14.95 -6.70 17.70 -7.25 19.50 -1.55 4.85 -1.75 3.95 -1.75 -7.45 0 -10.85 0 -11.05 -1.05 -11.20 -1 -0.15 -1.05 0.10 -1.30 5 -0.50 8.90 -3.50 15.95 -8.55 19.80 -6 4.60 -8.85 5.10 -27.85 5.10 -7.95 0 -14.50 -0.20 -14.50 -0.40 0 -0.20 0.20 -0.60 0.45 -0.85 0.40 -0.45 7.80 -14.05 12.30 -22.50 1.75 -3.35 11.20 -20.80 13.05 -24.15 0.65 -1.15 2.35 -4.30 3.80 -7 3.55 -6.65 10.30 -19.15 15.90 -29.35 7.35 -13.40 8.45 -15.50 8.50 -15.85 0 -0.25 -20.35 -0.40 -45.25 -0.40 -44.90 0 -45.25 0 -45.25 1 0 0.95 0.35 1 5.75 1 l5.75 0 0 36.65 c-0.05 32.95 -0.10 36.50 -0.80 35.60 -0.40 -0.55 -5.60 -8.65 -11.55 -18 -5.90 -9.35 -11.50 -18.15 -12.45 -19.60 -0.90 -1.40 -3.50 -5.55 -5.70 -9.20 -2.25 -3.60 -5.55 -8.85 -7.35 -11.65 -1.80 -2.80 -4 -6.15 -4.85 -7.55 -0.90 -1.35 -2.45 -3.80 -3.45 -5.35 l-1.85 -2.90 -13.25 0 c-12.90 0 -13.25 0.05 -13.25 1 0 0.95 0.35 1 4.90 1 2.65 0 5.10 0.20 5.40 0.40 0.30 0.20 1.25 1.60 2.15 3.15 l1.55 2.80 -0.20 15.70 c-0.15 8.65 -0.25 29.35 -0.30 46.10 l0 30.35 -1.75 0 c-1.55 0 -1.75 0.15 -1.75 1.25 l0 1.25 9.50 0 9.50 0 0 -1.25z m-36 -40.25 c0 -0.30 -0.80 -1.80 -1.75 -3.30 -3.65 -5.70 -3.55 -11 0.50 -19.20 1.70 -3.50 2.10 -4.80 1.70 -5.30 -0.40 -0.50 -0.25 -0.80 0.65 -1.20 0.65 -0.30 1.55 -1.25 2.05 -2.05 0.80 -1.50 0.80 -1.50 -0.20 -1.20 -1.65 0.55 -3.15 -0.10 -4.15 -1.80 -1.10 -1.90 -0.80 -5.35 0.80 -9.05 1.05 -2.45 3.85 -5.40 5.15 -5.40 1.20 0 0.85 -0.90 -0.60 -1.70 -2.05 -1 -7.50 -2.30 -8.40 -2 -0.60 0.25 -1.05 -0.35 -0.65 -0.90 0.05 -0.10 -0.55 -1.10 -1.25 -2.25 -0.75 -1.20 -1.35 -2.70 -1.35 -3.40 0 -0.85 -0.35 -1.45 -1.10 -1.75 -0.65 -0.25 -0.85 -0.45 -0.45 -0.45 0.40 -0.05 0.60 -0.15 0.45 -0.30 -0.15 -0.15 -0.90 -0.05 -1.65 0.25 -1.40 0.55 -1.40 0.55 -1.10 4.15 0.20 2 0.45 4.15 0.65 4.80 0.30 0.95 0.20 1.10 -0.60 0.95 -1.10 -0.20 -1.60 -1.60 -1.95 -6 l-0.30 -3.30 -2.50 -0.20 -2.50 -0.15 0.30 1.90 c0.80 4.55 -1.05 7.90 -4.95 8.85 -1.10 0.30 -2.50 0.75 -3.05 1 -0.55 0.25 -1.50 0.60 -2.15 0.75 -1.50 0.45 -2.25 1.95 -2.65 5.60 -0.30 3 -1.45 5.50 -3.95 8.65 -1.50 1.90 -1.70 5.75 -0.40 8.30 0.95 2 1 2.25 0.30 4.05 -0.45 1.05 -0.90 3.05 -1.10 4.40 -0.30 2.50 -0.30 2.50 0.50 1.10 0.40 -0.80 0.85 -1.90 0.90 -2.50 0.15 -1.20 1.35 -3.35 1.85 -3.35 0.80 0 2.05 5.10 2.30 9.30 0.25 3.85 0.10 5.10 -0.85 8 -0.60 1.90 -1.35 3.70 -1.55 4 -0.25 0.30 -0.30 0.70 -0.10 0.85 0.55 0.60 33.15 0.40 33.15 -0.15z m4.25 -36.55 c0.20 -0.50 0.70 -1.15 1.20 -1.45 2.25 -1.20 3.40 -7.25 1.75 -9.30 -0.65 -0.80 -0.75 -0.80 -0.50 -0.05 0.15 0.45 0.45 1.25 0.60 1.75 0.25 0.75 0.20 0.75 -0.50 -0.10 -0.75 -0.90 -0.80 -0.90 -2.05 -0.10 -3.30 2.20 -4.65 11.70 -1.45 10.45 0.35 -0.15 0.80 -0.65 0.95 -1.20z"/>
  <path d="M39.35 298.65 c-0.35 -0.60 -0.35 -93 0 -95.85 l0.25 -2.40 9.10 0.25 c14.10 0.35 20.05 2.50 26.85 9.70 5.40 5.70 8.70 13.25 10.45 23.65 2.80 16.90 1.05 33.80 -4.75 45.75 -5.25 10.85 -11.75 16.50 -21.35 18.45 -4.05 0.85 -20.15 1.15 -20.55 0.45z"/>
  <path d="M417 263.60 c0 -0.40 2.65 -7.65 5.70 -15.60 0.90 -2.35 3.65 -9.60 6.10 -16.10 2.40 -6.55 4.55 -11.75 4.70 -11.50 0.45 0.50 1.80 4 5.80 15.10 5.70 15.75 6.55 18.15 8.40 22.90 1 2.50 1.80 4.80 1.80 5.10 0 0.35 -5.50 0.50 -16.25 0.50 -8.95 0 -16.25 -0.20 -16.25 -0.40z"/>
  <path d="M236.15 259.40 c-0.30 -0.35 -0.80 -1.85 -1.15 -3.35 -0.35 -1.45 -1.25 -4.70 -2.05 -7.15 -0.80 -2.50 -1.45 -4.80 -1.45 -5.15 0 -1.60 -3.15 -8.80 -4.10 -9.30 -0.55 -0.30 -0.85 -0.80 -0.75 -1.20 0.15 -0.35 0.05 -0.85 -0.25 -1.15 -0.40 -0.40 -0.30 -0.90 0.30 -1.80 0.45 -0.70 0.80 -1.60 0.80 -1.95 0 -1.20 4.70 -7 7.80 -9.65 5.25 -4.50 5.60 -4.25 0.95 0.85 -1.80 1.95 -3.25 3.80 -3.25 4.15 0 0.30 -0.40 0.95 -0.95 1.40 -0.50 0.40 -1.35 1.85 -1.80 3.15 -1.05 2.65 -1 2.95 1.65 10 0.85 2.20 1.95 6.15 2.55 8.75 0.60 2.60 1.50 6.45 2.05 8.45 0.95 3.55 0.80 5.40 -0.35 3.95z"/>
  <path d="M243 234.40 c0 -0.45 0.35 -1.10 0.85 -1.45 0.75 -0.65 0.75 -0.60 0.15 0.55 -0.85 1.70 -1 1.80 -1 0.90z"/>
  <path d="M242.50 230.25 c-0.85 -1.05 -0.25 -1.55 0.75 -0.60 0.40 0.45 0.75 0.90 0.75 1.05 0 0.55 -0.90 0.30 -1.50 -0.45z"/>
  <path d="M242.55 214.80 c0.10 -0.10 0.75 -0.45 1.45 -0.80 1.15 -0.60 1.20 -0.60 0.55 0.15 -0.35 0.50 -1 0.85 -1.45 0.85 -0.40 0 -0.65 -0.10 -0.55 -0.20z"/>
  <path d="M225.90 206.30 c0.45 -1.25 1 -2.10 1.25 -1.85 0.50 0.50 -0.30 2.65 -1.30 3.45 -0.65 0.55 -0.60 0.30 0.05 -1.60z"/>
  <path d="M229.40 207.20 c-0.25 -0.20 -0.40 -1.15 -0.40 -2.15 0 -1.25 0.15 -1.60 0.55 -1.20 0.30 0.30 0.45 1.25 0.35 2.15 -0.10 0.85 -0.30 1.40 -0.50 1.20z"/>
 </g>
</svg>